<?xml version="1.0" encoding="utf-8"?>
<!-- Generator: Adobe Illustrator 23.0.1, SVG Export Plug-In . SVG Version: 6.00 Build 0)  -->
<svg version="1.1" id="Capa_1" xmlns="http://www.w3.org/2000/svg" xmlns:xlink="http://www.w3.org/1999/xlink" x="0px" y="0px"
	 viewBox="0 0 512 512" style="enable-background:new 0 0 512 512;" xml:space="preserve">
<style type="text/css">
	.st0{fill:#FF9171;}
	.st1{fill:#B7EABC;}
	.st2{fill:#FFFFFF;}
</style>
<g id="XMLID_629_">
	<ellipse id="XMLID_494_" class="st0" cx="250" cy="261.7" rx="152.4" ry="152.4"/>
	<g id="XMLID_2843_">
		<circle id="XMLID_2844_" class="st1" cx="87.7" cy="424.2" r="27"/>
	</g>
	<g id="XMLID_2841_">
		<circle id="XMLID_2842_" class="st1" cx="87.7" cy="424.2" r="27"/>
	</g>
	<g>
		
			<ellipse id="XMLID_2830_" transform="matrix(0.1602 -0.9871 0.9871 0.1602 -259.7906 646.7347)" class="st1" cx="250.2" cy="476" rx="23.2" ry="23.2"/>
		<ellipse id="XMLID_1768_" class="st1" cx="250.2" cy="41.7" rx="28.9" ry="28.9"/>
		<ellipse id="XMLID_1822_" class="st1" cx="35.8" cy="261.8" rx="23.2" ry="23.2"/>
		<ellipse id="XMLID_1798_" class="st1" cx="464.4" cy="261.8" rx="23.2" ry="23.2"/>
		
			<ellipse id="XMLID_1797_" transform="matrix(0.1602 -0.9871 0.9871 0.1602 -259.7906 646.7347)" class="st1" cx="250.2" cy="476" rx="23.2" ry="23.2"/>
		<ellipse id="XMLID_1614_" class="st1" cx="250.2" cy="41.7" rx="28.9" ry="28.9"/>
		<ellipse id="XMLID_1821_" class="st1" cx="35.8" cy="261.8" rx="23.2" ry="23.2"/>
		<ellipse id="XMLID_1796_" class="st1" cx="464.4" cy="261.8" rx="23.2" ry="23.2"/>
	</g>
	<g id="XMLID_1788_">
		<ellipse id="XMLID_1791_" class="st1" cx="402.5" cy="414.2" rx="27" ry="27"/>
	</g>
	<g id="XMLID_1786_">
		<ellipse id="XMLID_1787_" class="st1" cx="402.5" cy="414.2" rx="27" ry="27"/>
	</g>
	<g id="XMLID_179_">
		<circle id="XMLID_181_" class="st1" cx="180.2" cy="261.7" r="27"/>
	</g>
	<g id="XMLID_177_">
		<circle id="XMLID_178_" class="st1" cx="180.2" cy="261.7" r="27"/>
	</g>
	<g id="XMLID_204_">
		<ellipse id="XMLID_207_" class="st1" cx="277.3" cy="207.7" rx="27" ry="27"/>
	</g>
	<g id="XMLID_185_">
		<ellipse id="XMLID_186_" class="st1" cx="277.3" cy="207.7" rx="27" ry="27"/>
	</g>
	<g id="XMLID_212_">
		<circle id="XMLID_213_" class="st1" cx="266.3" cy="331.7" r="27"/>
	</g>
	<g id="XMLID_210_">
		<circle id="XMLID_211_" class="st1" cx="266.3" cy="331.7" r="27"/>
	</g>
	<g id="XMLID_1843_">
		
			<ellipse id="XMLID_1844_" transform="matrix(0.1602 -0.9871 0.9871 0.1602 -25.761 186.7554)" class="st1" cx="96.9" cy="108.5" rx="27" ry="27"/>
	</g>
	<g id="XMLID_1833_">
		
			<ellipse id="XMLID_1842_" transform="matrix(0.1602 -0.9871 0.9871 0.1602 -25.761 186.7554)" class="st1" cx="96.9" cy="108.5" rx="27" ry="27"/>
	</g>
	<g id="XMLID_1545_">
		<g id="XMLID_1828_">
			
				<ellipse id="XMLID_1829_" transform="matrix(0.9238 -0.3829 0.3829 0.9238 -4.1744 167.1583)" class="st1" cx="417.8" cy="94.1" rx="27" ry="27"/>
		</g>
		<g id="XMLID_1826_">
			
				<ellipse id="XMLID_1827_" transform="matrix(0.9238 -0.3829 0.3829 0.9238 -4.1744 167.1583)" class="st1" cx="417.8" cy="94.1" rx="27" ry="27"/>
		</g>
	</g>
	<g id="XMLID_624_">
		<path id="XMLID_1043_" class="st2" d="M464.5,225.7c-15.4,0-28.4,9.6-33.7,23.2h-16c-1.4-18.2-5.8-35.8-13.1-52.7
			c-2.8-6.5-10.4-9.5-16.8-6.7c-6.5,2.8-9.5,10.4-6.7,16.8c7.6,17.5,11.4,36.1,11.4,55.3c0,33.9-12.2,65-32.2,89.2l-8.1-8.1
			c-5-5-13.1-5-18,0c-5,5-5,13.1,0,18l8.1,8.1c-24.2,20.2-55.3,32.2-89.2,32.2s-65-12.2-89.2-32.2l1.3-1.3c5-5,5-13.1,0-18
			c-5-5-13.1-5-18,0l-1.3,1.3c-20.2-24.2-32.2-55.3-32.2-89.2s12.2-65,32.2-89.2l10.5,10.5c2.6,2.6,5.8,3.7,9.1,3.7
			c3.3,0,6.5-1.3,9.1-3.7c5-5,5-13.1,0-18l-10.5-10.5c24.2-20.2,55.3-32.2,89.2-32.2c19.1,0,37.5,3.7,54.8,11.1
			c6.5,2.8,14.1-0.3,16.8-6.8c2.8-6.5-0.3-14.1-6.8-16.8c-16.6-7-34-11.4-52.1-12.7V81.4C279.9,76,292,60.3,292,41.7
			c0-23-18.7-41.7-41.7-41.7s-41.7,18.7-41.7,41.7c0,18.6,12.2,34.3,28.9,39.7V97c-36,2.8-68.7,17.1-94.6,39.3L132.7,126
			c2.7-5.4,4.1-11.3,4.1-17.7c0-22-17.9-39.8-39.8-39.8c-22,0-39.8,17.9-39.8,39.8s17.9,39.8,39.8,39.8c6.3,0,12.3-1.5,17.7-4.1
			l10.2,10.2c-22.1,25.8-36.5,58.6-39.3,94.6h-16c-5.1-13.6-18.3-23.2-33.7-23.2c-19.8,0-36,16.1-36,36c0,19.8,16.1,36,36,36
			c15.4,0,28.4-9.6,33.7-23.2h16c2.8,36,17.1,68.7,39.3,94.6l-19.5,19.5c-5.4-2.7-11.3-4.1-17.7-4.1c-22,0-39.8,17.9-39.8,39.8
			S65.9,464,87.8,464s39.8-17.9,39.8-39.8c0-6.3-1.5-12.3-4.1-17.7l19.5-19.5c25.8,22.1,58.6,36.5,94.6,39.3v16
			c-13.6,5.1-23.2,18.3-23.2,33.7c0,19.8,16.1,36,36,36s36-16.1,36-36c0-15.4-9.6-28.4-23.2-33.7v-16c36-2.8,68.7-17.1,94.6-39.3
			l9.3,9.3c-2.7,5.4-4.1,11.3-4.1,17.7c0,22,17.9,39.8,39.8,39.8c22,0,39.8-17.9,39.8-39.8s-17.9-39.8-39.8-39.8
			c-6.3,0-12.3,1.5-17.7,4.1l-9.3-9.3c22.1-25.8,36.5-58.6,39.3-94.6h15.9c5.1,13.6,18.3,23.2,33.7,23.2c19.8,0,36-16.1,36-36
			C500.5,241.9,484.4,225.7,464.5,225.7L464.5,225.7z M250.2,25.6c8.8,0,16.1,7.2,16.1,16.1s-7.2,16.1-16.1,16.1
			c-8.8,0-16.1-7.2-16.1-16.1S241.3,25.6,250.2,25.6L250.2,25.6z M96.9,122.7c-7.8,0-14.2-6.4-14.2-14.2s6.4-14.2,14.2-14.2
			s14.2,6.4,14.2,14.2S104.8,122.7,96.9,122.7z M35.8,272.1c-5.8,0-10.4-4.6-10.4-10.4c0-5.8,4.6-10.4,10.4-10.4s10.4,4.6,10.4,10.4
			C46.2,267.5,41.6,272.1,35.8,272.1z M87.7,438.5c-7.8,0-14.2-6.4-14.2-14.2s6.4-14.2,14.2-14.2s14.2,6.4,14.2,14.2
			C101.9,432.1,95.5,438.5,87.7,438.5z M250.2,486.4c-5.8,0-10.4-4.6-10.4-10.4c0-5.8,4.6-10.4,10.4-10.4c5.8,0,10.4,4.6,10.4,10.4
			C260.5,481.8,255.9,486.4,250.2,486.4L250.2,486.4z M402.6,399.9c7.8,0,14.2,6.4,14.2,14.2c0,7.8-6.4,14.2-14.2,14.2
			c-7.8,0-14.2-6.4-14.2-14.2C388.4,406.3,394.7,399.9,402.6,399.9z M464.5,272.1c-5.8,0-10.4-4.6-10.4-10.4
			c0-5.8,4.6-10.4,10.4-10.4c5.8,0,10.4,4.6,10.4,10.4C474.9,267.5,470.2,272.1,464.5,272.1z"/>
		<path id="XMLID_1052_" class="st2" d="M140.4,261.7c0,22,17.9,39.8,39.8,39.8s39.8-17.9,39.8-39.8s-17.9-39.8-39.8-39.8
			S140.4,239.8,140.4,261.7z M194.4,261.7c0,7.8-6.4,14.2-14.2,14.2s-14.2-6.4-14.2-14.2s6.4-14.2,14.2-14.2
			S194.4,253.9,194.4,261.7z"/>
		<path id="XMLID_1055_" class="st2" d="M277.3,167.9c-22,0-39.8,17.9-39.8,39.8c0,22,17.9,39.8,39.8,39.8c22,0,39.8-17.9,39.8-39.8
			S299.3,167.9,277.3,167.9z M277.3,221.9c-7.8,0-14.2-6.4-14.2-14.2c0-7.8,6.4-14.2,14.2-14.2c7.8,0,14.2,6.4,14.2,14.2
			C291.5,215.5,285.2,221.9,277.3,221.9z"/>
		<path id="XMLID_1058_" class="st2" d="M266.3,291.9c-22,0-39.8,17.9-39.8,39.8s17.9,39.8,39.8,39.8s39.8-17.9,39.8-39.8
			S288.3,291.9,266.3,291.9z M266.3,345.9c-7.8,0-14.2-6.4-14.2-14.2s6.4-14.2,14.2-14.2s14.2,6.4,14.2,14.2
			S274.1,345.9,266.3,345.9z"/>
		<path id="XMLID_1061_" class="st2" d="M417.7,134c22,0,39.8-17.9,39.8-39.8s-17.9-39.8-39.8-39.8s-39.8,17.9-39.8,39.8
			S395.8,134,417.7,134z M417.7,80c7.8,0,14.2,6.4,14.2,14.2s-6.4,14.2-14.2,14.2s-14.2-6.4-14.2-14.2C403.5,86.3,409.9,80,417.7,80
			z"/>
		<path id="XMLID_1062_" class="st2" d="M357.7,166.6c3.3,0,6.7-1.4,9.1-3.7c2.4-2.4,3.7-5.6,3.7-9.1c0-3.3-1.4-6.7-3.7-9.1
			c-2.4-2.4-5.6-3.7-9.1-3.7c-3.5,0-6.7,1.4-9.1,3.7c-2.4,2.4-3.7,5.6-3.7,9.1c0,3.3,1.4,6.7,3.7,9.1
			C351,165.2,354.3,166.6,357.7,166.6z"/>
	</g>
</g>
</svg>
